<svg width="1600" height="1066" viewBox="0 0 1600 1066" fill="none" xmlns="http://www.w3.org/2000/svg">
  <rect width="1600" height="1066" fill="#07090D"/>
  <rect width="1600" height="1066" fill="url(#paint0_linear_12_2)"/>
  <circle cx="1188" cy="228" r="318" fill="url(#paint1_radial_12_2)" fill-opacity="0.55"/>
  <circle cx="336" cy="906" r="414" fill="url(#paint2_radial_12_2)" fill-opacity="0.48"/>
  <path d="M0 840L284 612L456 718L638 544L844 672L1088 356L1324 504L1600 216V1066H0V840Z" fill="#111723"/>
  <path d="M0 932L238 788L420 862L642 706L824 812L1102 526L1362 716L1600 608V1066H0V932Z" fill="#182131"/>
  <path d="M0 984L196 916L420 958L676 844L880 932L1184 728L1426 842L1600 804V1066H0V984Z" fill="#21314A"/>
  <rect x="104" y="92" width="430" height="176" rx="28" fill="#0A0E14" fill-opacity="0.58" stroke="#5CA9E6" stroke-opacity="0.24"/>
  <text x="140" y="168" fill="#F4F6F7" font-family="Arial, sans-serif" font-size="54" font-weight="700" letter-spacing="0.18em">SHUNYIN</text>
  <text x="142" y="214" fill="#7DBAE8" font-family="Arial, sans-serif" font-size="22" letter-spacing="0.28em">CINEMATIC WATERMARK WORKSPACE</text>
  <text x="120" y="1008" fill="#EDF1F4" font-family="Arial, sans-serif" font-size="26" letter-spacing="0.18em">DEMO FALLBACK IMAGE</text>
  <text x="1198" y="1008" fill="#BFD9EA" font-family="Arial, sans-serif" font-size="22" letter-spacing="0.16em">1600 × 1066</text>
  <defs>
    <linearGradient id="paint0_linear_12_2" x1="234" y1="102" x2="1366" y2="964" gradientUnits="userSpaceOnUse">
      <stop stop-color="#0D1522"/>
      <stop offset="0.52" stop-color="#101C2B"/>
      <stop offset="1" stop-color="#06070A"/>
    </linearGradient>
    <radialGradient id="paint1_radial_12_2" cx="0" cy="0" r="1" gradientUnits="userSpaceOnUse" gradientTransform="translate(1188 228) rotate(90) scale(318)">
      <stop stop-color="#5FB8F5"/>
      <stop offset="1" stop-color="#5FB8F5" stop-opacity="0"/>
    </radialGradient>
    <radialGradient id="paint2_radial_12_2" cx="0" cy="0" r="1" gradientUnits="userSpaceOnUse" gradientTransform="translate(336 906) rotate(90) scale(414)">
      <stop stop-color="#FFB95C"/>
      <stop offset="1" stop-color="#FFB95C" stop-opacity="0"/>
    </radialGradient>
  </defs>
</svg>
